<mxfile host="app.diagrams.net" agent="Mozilla/5.0 (X11; Linux x86_64) AppleWebKit/537.36 (KHTML, like Gecko) Chrome/128.0.0.0 Safari/537.36" version="24.7.12">
  <diagram name="Page-1" id="BrDScA6GKN9gRCw7IG8r">
    <mxGraphModel dx="1434" dy="788" grid="1" gridSize="10" guides="1" tooltips="1" connect="1" arrows="1" fold="1" page="1" pageScale="1" pageWidth="827" pageHeight="1169" math="0" shadow="0">
      <root>
        <mxCell id="0" />
        <mxCell id="1" parent="0" />
        <mxCell id="JWJmt5BBZpwHFVdxBDDE-1" value="" style="edgeStyle=orthogonalEdgeStyle;rounded=1;orthogonalLoop=1;jettySize=auto;html=1;labelBackgroundColor=none;strokeColor=#E07A5F;fontColor=default;align=center;fontStyle=1" edge="1" parent="1" source="JWJmt5BBZpwHFVdxBDDE-2" target="JWJmt5BBZpwHFVdxBDDE-4">
          <mxGeometry relative="1" as="geometry" />
        </mxCell>
        <mxCell id="JWJmt5BBZpwHFVdxBDDE-2" value="START" style="ellipse;whiteSpace=wrap;html=1;rounded=1;labelBackgroundColor=none;fillColor=#F2CC8F;strokeColor=#E07A5F;fontColor=#393C56;align=center;fontStyle=1" vertex="1" parent="1">
          <mxGeometry x="354" y="118" width="120" height="80" as="geometry" />
        </mxCell>
        <mxCell id="JWJmt5BBZpwHFVdxBDDE-16" value="" style="edgeStyle=orthogonalEdgeStyle;rounded=0;orthogonalLoop=1;jettySize=auto;html=1;labelBackgroundColor=none;strokeColor=#E07A5F;fontColor=default;fontStyle=1" edge="1" parent="1" source="JWJmt5BBZpwHFVdxBDDE-4" target="JWJmt5BBZpwHFVdxBDDE-9">
          <mxGeometry relative="1" as="geometry" />
        </mxCell>
        <mxCell id="JWJmt5BBZpwHFVdxBDDE-4" value="INPUT AGE" style="shape=parallelogram;perimeter=parallelogramPerimeter;whiteSpace=wrap;html=1;fixedSize=1;rounded=1;labelBackgroundColor=none;fillColor=#F2CC8F;strokeColor=#E07A5F;fontColor=#393C56;align=center;fontStyle=1" vertex="1" parent="1">
          <mxGeometry x="299" y="268" width="230" height="60" as="geometry" />
        </mxCell>
        <mxCell id="JWJmt5BBZpwHFVdxBDDE-5" value="END" style="ellipse;whiteSpace=wrap;html=1;rounded=1;labelBackgroundColor=none;fillColor=#F2CC8F;strokeColor=#E07A5F;fontColor=#393C56;align=center;fontStyle=1" vertex="1" parent="1">
          <mxGeometry x="354" y="628" width="120" height="80" as="geometry" />
        </mxCell>
        <mxCell id="JWJmt5BBZpwHFVdxBDDE-6" value="&lt;h1 style=&quot;margin-top: 0px;&quot;&gt;Driving License Eligibility&lt;br&gt;&lt;/h1&gt;" style="text;html=1;whiteSpace=wrap;overflow=hidden;rounded=1;labelBackgroundColor=none;fontColor=#393C56;align=center;" vertex="1" parent="1">
          <mxGeometry x="41" y="40" width="760" height="50" as="geometry" />
        </mxCell>
        <mxCell id="JWJmt5BBZpwHFVdxBDDE-7" value="" style="edgeStyle=orthogonalEdgeStyle;rounded=0;orthogonalLoop=1;jettySize=auto;html=1;strokeColor=#E07A5F;fontColor=default;fillColor=#F2CC8F;align=center;labelBackgroundColor=none;fontStyle=1" edge="1" parent="1" source="JWJmt5BBZpwHFVdxBDDE-9" target="JWJmt5BBZpwHFVdxBDDE-11">
          <mxGeometry relative="1" as="geometry" />
        </mxCell>
        <mxCell id="JWJmt5BBZpwHFVdxBDDE-8" value="" style="edgeStyle=orthogonalEdgeStyle;rounded=0;orthogonalLoop=1;jettySize=auto;html=1;strokeColor=#E07A5F;fontColor=default;fillColor=#F2CC8F;align=center;labelBackgroundColor=none;fontStyle=1" edge="1" parent="1" source="JWJmt5BBZpwHFVdxBDDE-9" target="JWJmt5BBZpwHFVdxBDDE-13">
          <mxGeometry relative="1" as="geometry" />
        </mxCell>
        <mxCell id="JWJmt5BBZpwHFVdxBDDE-9" value="IF AGE &amp;gt;= 18" style="rhombus;whiteSpace=wrap;html=1;fillColor=#F2CC8F;strokeColor=#E07A5F;labelBackgroundColor=none;fontColor=#393C56;align=center;fontStyle=1" vertex="1" parent="1">
          <mxGeometry x="339" y="400" width="150" height="80" as="geometry" />
        </mxCell>
        <mxCell id="JWJmt5BBZpwHFVdxBDDE-10" style="edgeStyle=orthogonalEdgeStyle;rounded=0;orthogonalLoop=1;jettySize=auto;html=1;strokeColor=#E07A5F;fontColor=default;fillColor=#F2CC8F;align=center;labelBackgroundColor=none;fontStyle=1" edge="1" parent="1" target="JWJmt5BBZpwHFVdxBDDE-5">
          <mxGeometry relative="1" as="geometry">
            <mxPoint x="269" y="578" as="sourcePoint" />
            <mxPoint x="363" y="668" as="targetPoint" />
            <Array as="points">
              <mxPoint x="269" y="668" />
            </Array>
          </mxGeometry>
        </mxCell>
        <mxCell id="JWJmt5BBZpwHFVdxBDDE-11" value="&lt;div&gt;OUTPUT&lt;/div&gt;ELIGIBLE FOR&lt;div&gt;DRIVING&amp;nbsp;&lt;/div&gt;&lt;div&gt;LICENSE&lt;/div&gt;" style="shape=parallelogram;perimeter=parallelogramPerimeter;whiteSpace=wrap;html=1;fixedSize=1;fillColor=#F2CC8F;strokeColor=#E07A5F;fontColor=#393C56;labelBackgroundColor=none;align=center;fontStyle=1" vertex="1" parent="1">
          <mxGeometry x="210" y="518" width="120" height="60" as="geometry" />
        </mxCell>
        <mxCell id="JWJmt5BBZpwHFVdxBDDE-12" style="edgeStyle=orthogonalEdgeStyle;rounded=0;orthogonalLoop=1;jettySize=auto;html=1;strokeColor=#E07A5F;fontColor=default;fillColor=#F2CC8F;align=center;labelBackgroundColor=none;fontStyle=1" edge="1" parent="1" target="JWJmt5BBZpwHFVdxBDDE-5">
          <mxGeometry relative="1" as="geometry">
            <mxPoint x="572" y="578" as="sourcePoint" />
            <mxPoint x="486" y="668" as="targetPoint" />
            <Array as="points">
              <mxPoint x="572" y="668" />
            </Array>
          </mxGeometry>
        </mxCell>
        <mxCell id="JWJmt5BBZpwHFVdxBDDE-13" value="OUTPUT&amp;nbsp;&lt;span style=&quot;background-color: initial;&quot;&gt;NOT&amp;nbsp;&lt;/span&gt;&lt;div&gt;&lt;div&gt;ELIGIBLE FOR&lt;div&gt;DRIVING&amp;nbsp;&lt;/div&gt;&lt;div&gt;LICENSE&lt;/div&gt;&lt;/div&gt;&lt;/div&gt;" style="shape=parallelogram;perimeter=parallelogramPerimeter;whiteSpace=wrap;html=1;fixedSize=1;fillColor=#F2CC8F;strokeColor=#E07A5F;fontColor=#393C56;labelBackgroundColor=none;align=center;fontStyle=1" vertex="1" parent="1">
          <mxGeometry x="510" y="518" width="120" height="60" as="geometry" />
        </mxCell>
        <mxCell id="JWJmt5BBZpwHFVdxBDDE-14" value="YES" style="text;html=1;align=center;verticalAlign=middle;whiteSpace=wrap;rounded=0;fontColor=#393C56;labelBackgroundColor=none;fontStyle=1" vertex="1" parent="1">
          <mxGeometry x="294" y="410" width="60" height="30" as="geometry" />
        </mxCell>
        <mxCell id="JWJmt5BBZpwHFVdxBDDE-15" value="NO" style="text;html=1;align=center;verticalAlign=middle;whiteSpace=wrap;rounded=0;fontColor=#393C56;labelBackgroundColor=none;fontStyle=1" vertex="1" parent="1">
          <mxGeometry x="490" y="410" width="60" height="30" as="geometry" />
        </mxCell>
      </root>
    </mxGraphModel>
  </diagram>
</mxfile>
